<mxfile host="app.diagrams.net" agent="Mozilla/5.0 (Windows NT 10.0; Win64; x64) AppleWebKit/537.36 (KHTML, like Gecko) Chrome/131.0.0.0 Safari/537.36" version="26.0.5">
  <diagram id="C5RBs43oDa-KdzZeNtuy" name="Page-1">
    <mxGraphModel dx="1674" dy="784" grid="1" gridSize="10" guides="1" tooltips="1" connect="1" arrows="1" fold="1" page="1" pageScale="1" pageWidth="827" pageHeight="1169" math="0" shadow="0">
      <root>
        <mxCell id="WIyWlLk6GJQsqaUBKTNV-0" />
        <mxCell id="WIyWlLk6GJQsqaUBKTNV-1" parent="WIyWlLk6GJQsqaUBKTNV-0" />
        <mxCell id="Q6FI84Q2U2g7kpiwHqyH-0" value="Bank" style="swimlane;fontStyle=1;align=center;verticalAlign=top;childLayout=stackLayout;horizontal=1;startSize=32;horizontalStack=0;resizeParent=1;resizeParentMax=0;resizeLast=0;collapsible=0;marginBottom=0;" vertex="1" parent="WIyWlLk6GJQsqaUBKTNV-1">
          <mxGeometry x="931" y="554" width="211" height="264" as="geometry" />
        </mxCell>
        <mxCell id="Q6FI84Q2U2g7kpiwHqyH-1" value="-bank_name: str" style="text;strokeColor=none;fillColor=none;align=left;verticalAlign=top;spacingLeft=4;spacingRight=4;overflow=hidden;rotatable=0;points=[[0,0.5],[1,0.5]];portConstraint=eastwest;" vertex="1" parent="Q6FI84Q2U2g7kpiwHqyH-0">
          <mxGeometry y="32" width="211" height="32" as="geometry" />
        </mxCell>
        <mxCell id="Q6FI84Q2U2g7kpiwHqyH-2" value="-user_list: List" style="text;strokeColor=none;fillColor=none;align=left;verticalAlign=top;spacingLeft=4;spacingRight=4;overflow=hidden;rotatable=0;points=[[0,0.5],[1,0.5]];portConstraint=eastwest;" vertex="1" parent="Q6FI84Q2U2g7kpiwHqyH-0">
          <mxGeometry y="64" width="211" height="32" as="geometry" />
        </mxCell>
        <mxCell id="Q6FI84Q2U2g7kpiwHqyH-3" value="-atm_machine_list: List" style="text;strokeColor=none;fillColor=none;align=left;verticalAlign=top;spacingLeft=4;spacingRight=4;overflow=hidden;rotatable=0;points=[[0,0.5],[1,0.5]];portConstraint=eastwest;" vertex="1" parent="Q6FI84Q2U2g7kpiwHqyH-0">
          <mxGeometry y="96" width="211" height="32" as="geometry" />
        </mxCell>
        <mxCell id="Q6FI84Q2U2g7kpiwHqyH-4" value="-edc_machine_list: List" style="text;strokeColor=none;fillColor=none;align=left;verticalAlign=top;spacingLeft=4;spacingRight=4;overflow=hidden;rotatable=0;points=[[0,0.5],[1,0.5]];portConstraint=eastwest;" vertex="1" parent="Q6FI84Q2U2g7kpiwHqyH-0">
          <mxGeometry y="128" width="211" height="32" as="geometry" />
        </mxCell>
        <mxCell id="Q6FI84Q2U2g7kpiwHqyH-5" style="line;strokeWidth=1;fillColor=none;align=left;verticalAlign=middle;spacingTop=-1;spacingLeft=3;spacingRight=3;rotatable=0;labelPosition=right;points=[];portConstraint=eastwest;strokeColor=inherit;" vertex="1" parent="Q6FI84Q2U2g7kpiwHqyH-0">
          <mxGeometry y="160" width="211" height="8" as="geometry" />
        </mxCell>
        <mxCell id="Q6FI84Q2U2g7kpiwHqyH-6" value="+add_user()" style="text;strokeColor=none;fillColor=none;align=left;verticalAlign=top;spacingLeft=4;spacingRight=4;overflow=hidden;rotatable=0;points=[[0,0.5],[1,0.5]];portConstraint=eastwest;" vertex="1" parent="Q6FI84Q2U2g7kpiwHqyH-0">
          <mxGeometry y="168" width="211" height="32" as="geometry" />
        </mxCell>
        <mxCell id="Q6FI84Q2U2g7kpiwHqyH-7" value="+add_atm_mahine()" style="text;strokeColor=none;fillColor=none;align=left;verticalAlign=top;spacingLeft=4;spacingRight=4;overflow=hidden;rotatable=0;points=[[0,0.5],[1,0.5]];portConstraint=eastwest;" vertex="1" parent="Q6FI84Q2U2g7kpiwHqyH-0">
          <mxGeometry y="200" width="211" height="32" as="geometry" />
        </mxCell>
        <mxCell id="Q6FI84Q2U2g7kpiwHqyH-8" value="+add_edc_machine()" style="text;strokeColor=none;fillColor=none;align=left;verticalAlign=top;spacingLeft=4;spacingRight=4;overflow=hidden;rotatable=0;points=[[0,0.5],[1,0.5]];portConstraint=eastwest;" vertex="1" parent="Q6FI84Q2U2g7kpiwHqyH-0">
          <mxGeometry y="232" width="211" height="32" as="geometry" />
        </mxCell>
        <mxCell id="Q6FI84Q2U2g7kpiwHqyH-9" value="User" style="swimlane;fontStyle=1;align=center;verticalAlign=top;childLayout=stackLayout;horizontal=1;startSize=36.8;horizontalStack=0;resizeParent=1;resizeParentMax=0;resizeLast=0;collapsible=0;marginBottom=0;" vertex="1" parent="WIyWlLk6GJQsqaUBKTNV-1">
          <mxGeometry x="940" y="892" width="152" height="192.8" as="geometry" />
        </mxCell>
        <mxCell id="Q6FI84Q2U2g7kpiwHqyH-10" value="-name: str" style="text;strokeColor=none;fillColor=none;align=left;verticalAlign=top;spacingLeft=4;spacingRight=4;overflow=hidden;rotatable=0;points=[[0,0.5],[1,0.5]];portConstraint=eastwest;" vertex="1" parent="Q6FI84Q2U2g7kpiwHqyH-9">
          <mxGeometry y="36.8" width="152" height="37" as="geometry" />
        </mxCell>
        <mxCell id="Q6FI84Q2U2g7kpiwHqyH-11" value="-id: str" style="text;strokeColor=none;fillColor=none;align=left;verticalAlign=top;spacingLeft=4;spacingRight=4;overflow=hidden;rotatable=0;points=[[0,0.5],[1,0.5]];portConstraint=eastwest;" vertex="1" parent="Q6FI84Q2U2g7kpiwHqyH-9">
          <mxGeometry y="73.8" width="152" height="37" as="geometry" />
        </mxCell>
        <mxCell id="Q6FI84Q2U2g7kpiwHqyH-12" value="-account: List" style="text;strokeColor=none;fillColor=none;align=left;verticalAlign=top;spacingLeft=4;spacingRight=4;overflow=hidden;rotatable=0;points=[[0,0.5],[1,0.5]];portConstraint=eastwest;" vertex="1" parent="Q6FI84Q2U2g7kpiwHqyH-9">
          <mxGeometry y="110.8" width="152" height="37" as="geometry" />
        </mxCell>
        <mxCell id="Q6FI84Q2U2g7kpiwHqyH-13" style="line;strokeWidth=1;fillColor=none;align=left;verticalAlign=middle;spacingTop=-1;spacingLeft=3;spacingRight=3;rotatable=0;labelPosition=right;points=[];portConstraint=eastwest;strokeColor=inherit;" vertex="1" parent="Q6FI84Q2U2g7kpiwHqyH-9">
          <mxGeometry y="147.8" width="152" height="8" as="geometry" />
        </mxCell>
        <mxCell id="Q6FI84Q2U2g7kpiwHqyH-14" value="+add_account()" style="text;strokeColor=none;fillColor=none;align=left;verticalAlign=top;spacingLeft=4;spacingRight=4;overflow=hidden;rotatable=0;points=[[0,0.5],[1,0.5]];portConstraint=eastwest;" vertex="1" parent="Q6FI84Q2U2g7kpiwHqyH-9">
          <mxGeometry y="155.8" width="152" height="37" as="geometry" />
        </mxCell>
        <mxCell id="Q6FI84Q2U2g7kpiwHqyH-15" value="Account" style="swimlane;fontStyle=1;align=center;verticalAlign=top;childLayout=stackLayout;horizontal=1;startSize=34.666666666666664;horizontalStack=0;resizeParent=1;resizeParentMax=0;resizeLast=0;collapsible=0;marginBottom=0;" vertex="1" parent="WIyWlLk6GJQsqaUBKTNV-1">
          <mxGeometry x="929" y="1158" width="175" height="217.66666666666666" as="geometry" />
        </mxCell>
        <mxCell id="Q6FI84Q2U2g7kpiwHqyH-16" value="-account_id: str" style="text;strokeColor=none;fillColor=none;align=left;verticalAlign=top;spacingLeft=4;spacingRight=4;overflow=hidden;rotatable=0;points=[[0,0.5],[1,0.5]];portConstraint=eastwest;" vertex="1" parent="Q6FI84Q2U2g7kpiwHqyH-15">
          <mxGeometry y="34.666666666666664" width="175" height="35" as="geometry" />
        </mxCell>
        <mxCell id="Q6FI84Q2U2g7kpiwHqyH-17" value="-balance: double" style="text;strokeColor=none;fillColor=none;align=left;verticalAlign=top;spacingLeft=4;spacingRight=4;overflow=hidden;rotatable=0;points=[[0,0.5],[1,0.5]];portConstraint=eastwest;" vertex="1" parent="Q6FI84Q2U2g7kpiwHqyH-15">
          <mxGeometry y="69.66666666666666" width="175" height="35" as="geometry" />
        </mxCell>
        <mxCell id="Q6FI84Q2U2g7kpiwHqyH-18" value="-owner: User" style="text;strokeColor=none;fillColor=none;align=left;verticalAlign=top;spacingLeft=4;spacingRight=4;overflow=hidden;rotatable=0;points=[[0,0.5],[1,0.5]];portConstraint=eastwest;" vertex="1" parent="Q6FI84Q2U2g7kpiwHqyH-15">
          <mxGeometry y="104.66666666666666" width="175" height="35" as="geometry" />
        </mxCell>
        <mxCell id="Q6FI84Q2U2g7kpiwHqyH-19" value="-card: Card" style="text;strokeColor=none;fillColor=none;align=left;verticalAlign=top;spacingLeft=4;spacingRight=4;overflow=hidden;rotatable=0;points=[[0,0.5],[1,0.5]];portConstraint=eastwest;" vertex="1" parent="Q6FI84Q2U2g7kpiwHqyH-15">
          <mxGeometry y="139.66666666666666" width="175" height="35" as="geometry" />
        </mxCell>
        <mxCell id="Q6FI84Q2U2g7kpiwHqyH-20" style="line;strokeWidth=1;fillColor=none;align=left;verticalAlign=middle;spacingTop=-1;spacingLeft=3;spacingRight=3;rotatable=0;labelPosition=right;points=[];portConstraint=eastwest;strokeColor=inherit;" vertex="1" parent="Q6FI84Q2U2g7kpiwHqyH-15">
          <mxGeometry y="174.66666666666666" width="175" height="8" as="geometry" />
        </mxCell>
        <mxCell id="Q6FI84Q2U2g7kpiwHqyH-21" value="+add_card()" style="text;strokeColor=none;fillColor=none;align=left;verticalAlign=top;spacingLeft=4;spacingRight=4;overflow=hidden;rotatable=0;points=[[0,0.5],[1,0.5]];portConstraint=eastwest;" vertex="1" parent="Q6FI84Q2U2g7kpiwHqyH-15">
          <mxGeometry y="182.66666666666666" width="175" height="35" as="geometry" />
        </mxCell>
        <mxCell id="Q6FI84Q2U2g7kpiwHqyH-22" value="Card" style="swimlane;fontStyle=1;align=center;verticalAlign=top;childLayout=stackLayout;horizontal=1;startSize=34.666666666666664;horizontalStack=0;resizeParent=1;resizeParentMax=0;resizeLast=0;collapsible=0;marginBottom=0;" vertex="1" parent="WIyWlLk6GJQsqaUBKTNV-1">
          <mxGeometry x="450" y="1424" width="159" height="217.66666666666666" as="geometry" />
        </mxCell>
        <mxCell id="Q6FI84Q2U2g7kpiwHqyH-23" value="-card_id: str" style="text;strokeColor=none;fillColor=none;align=left;verticalAlign=top;spacingLeft=4;spacingRight=4;overflow=hidden;rotatable=0;points=[[0,0.5],[1,0.5]];portConstraint=eastwest;" vertex="1" parent="Q6FI84Q2U2g7kpiwHqyH-22">
          <mxGeometry y="34.666666666666664" width="159" height="35" as="geometry" />
        </mxCell>
        <mxCell id="Q6FI84Q2U2g7kpiwHqyH-24" value="-pin: str" style="text;strokeColor=none;fillColor=none;align=left;verticalAlign=top;spacingLeft=4;spacingRight=4;overflow=hidden;rotatable=0;points=[[0,0.5],[1,0.5]];portConstraint=eastwest;" vertex="1" parent="Q6FI84Q2U2g7kpiwHqyH-22">
          <mxGeometry y="69.66666666666666" width="159" height="35" as="geometry" />
        </mxCell>
        <mxCell id="Q6FI84Q2U2g7kpiwHqyH-25" value="-account_no: str" style="text;strokeColor=none;fillColor=none;align=left;verticalAlign=top;spacingLeft=4;spacingRight=4;overflow=hidden;rotatable=0;points=[[0,0.5],[1,0.5]];portConstraint=eastwest;" vertex="1" parent="Q6FI84Q2U2g7kpiwHqyH-22">
          <mxGeometry y="104.66666666666666" width="159" height="35" as="geometry" />
        </mxCell>
        <mxCell id="Q6FI84Q2U2g7kpiwHqyH-26" style="line;strokeWidth=1;fillColor=none;align=left;verticalAlign=middle;spacingTop=-1;spacingLeft=3;spacingRight=3;rotatable=0;labelPosition=right;points=[];portConstraint=eastwest;strokeColor=inherit;" vertex="1" parent="Q6FI84Q2U2g7kpiwHqyH-22">
          <mxGeometry y="139.66666666666666" width="159" height="8" as="geometry" />
        </mxCell>
        <mxCell id="Q6FI84Q2U2g7kpiwHqyH-27" value="+validate_pin()" style="text;strokeColor=none;fillColor=none;align=left;verticalAlign=top;spacingLeft=4;spacingRight=4;overflow=hidden;rotatable=0;points=[[0,0.5],[1,0.5]];portConstraint=eastwest;" vertex="1" parent="Q6FI84Q2U2g7kpiwHqyH-22">
          <mxGeometry y="147.66666666666666" width="159" height="35" as="geometry" />
        </mxCell>
        <mxCell id="Q6FI84Q2U2g7kpiwHqyH-28" value="+verify_card()" style="text;strokeColor=none;fillColor=none;align=left;verticalAlign=top;spacingLeft=4;spacingRight=4;overflow=hidden;rotatable=0;points=[[0,0.5],[1,0.5]];portConstraint=eastwest;" vertex="1" parent="Q6FI84Q2U2g7kpiwHqyH-22">
          <mxGeometry y="182.66666666666666" width="159" height="35" as="geometry" />
        </mxCell>
        <mxCell id="Q6FI84Q2U2g7kpiwHqyH-29" value="SavingAccount" style="swimlane;fontStyle=1;align=center;verticalAlign=top;childLayout=stackLayout;horizontal=1;startSize=38.857142857142854;horizontalStack=0;resizeParent=1;resizeParentMax=0;resizeLast=0;collapsible=0;marginBottom=0;" vertex="1" parent="WIyWlLk6GJQsqaUBKTNV-1">
          <mxGeometry x="659" y="1460" width="281" height="135.85714285714286" as="geometry" />
        </mxCell>
        <mxCell id="Q6FI84Q2U2g7kpiwHqyH-30" value="-withdraw_capacity: 50_000" style="text;strokeColor=none;fillColor=none;align=left;verticalAlign=top;spacingLeft=4;spacingRight=4;overflow=hidden;rotatable=0;points=[[0,0.5],[1,0.5]];portConstraint=eastwest;" vertex="1" parent="Q6FI84Q2U2g7kpiwHqyH-29">
          <mxGeometry y="38.857142857142854" width="281" height="39" as="geometry" />
        </mxCell>
        <mxCell id="Q6FI84Q2U2g7kpiwHqyH-31" value="-interest: 0.005" style="text;strokeColor=none;fillColor=none;align=left;verticalAlign=top;spacingLeft=4;spacingRight=4;overflow=hidden;rotatable=0;points=[[0,0.5],[1,0.5]];portConstraint=eastwest;" vertex="1" parent="Q6FI84Q2U2g7kpiwHqyH-29">
          <mxGeometry y="77.85714285714286" width="281" height="39" as="geometry" />
        </mxCell>
        <mxCell id="Q6FI84Q2U2g7kpiwHqyH-32" style="line;strokeWidth=1;fillColor=none;align=left;verticalAlign=middle;spacingTop=-1;spacingLeft=3;spacingRight=3;rotatable=0;labelPosition=right;points=[];portConstraint=eastwest;strokeColor=inherit;" vertex="1" parent="Q6FI84Q2U2g7kpiwHqyH-29">
          <mxGeometry y="116.85714285714286" width="281" height="19" as="geometry" />
        </mxCell>
        <mxCell id="Q6FI84Q2U2g7kpiwHqyH-33" value="FixedAccount" style="swimlane;fontStyle=1;align=center;verticalAlign=top;childLayout=stackLayout;horizontal=1;startSize=38.857142857142854;horizontalStack=0;resizeParent=1;resizeParentMax=0;resizeLast=0;collapsible=0;marginBottom=0;" vertex="1" parent="WIyWlLk6GJQsqaUBKTNV-1">
          <mxGeometry x="990" y="1460" width="221" height="135.85714285714286" as="geometry" />
        </mxCell>
        <mxCell id="Q6FI84Q2U2g7kpiwHqyH-34" value="-fix_interest: 0.025" style="text;strokeColor=none;fillColor=none;align=left;verticalAlign=top;spacingLeft=4;spacingRight=4;overflow=hidden;rotatable=0;points=[[0,0.5],[1,0.5]];portConstraint=eastwest;" vertex="1" parent="Q6FI84Q2U2g7kpiwHqyH-33">
          <mxGeometry y="38.857142857142854" width="221" height="39" as="geometry" />
        </mxCell>
        <mxCell id="Q6FI84Q2U2g7kpiwHqyH-35" value="-deposit_date: None" style="text;strokeColor=none;fillColor=none;align=left;verticalAlign=top;spacingLeft=4;spacingRight=4;overflow=hidden;rotatable=0;points=[[0,0.5],[1,0.5]];portConstraint=eastwest;" vertex="1" parent="Q6FI84Q2U2g7kpiwHqyH-33">
          <mxGeometry y="77.85714285714286" width="221" height="39" as="geometry" />
        </mxCell>
        <mxCell id="Q6FI84Q2U2g7kpiwHqyH-36" style="line;strokeWidth=1;fillColor=none;align=left;verticalAlign=middle;spacingTop=-1;spacingLeft=3;spacingRight=3;rotatable=0;labelPosition=right;points=[];portConstraint=eastwest;strokeColor=inherit;" vertex="1" parent="Q6FI84Q2U2g7kpiwHqyH-33">
          <mxGeometry y="116.85714285714286" width="221" height="19" as="geometry" />
        </mxCell>
        <mxCell id="Q6FI84Q2U2g7kpiwHqyH-37" value="CurrentAccount" style="swimlane;fontStyle=1;align=center;verticalAlign=top;childLayout=stackLayout;horizontal=1;startSize=38;horizontalStack=0;resizeParent=1;resizeParentMax=0;resizeLast=0;collapsible=0;marginBottom=0;" vertex="1" parent="WIyWlLk6GJQsqaUBKTNV-1">
          <mxGeometry x="1261" y="1490" width="143" height="57" as="geometry" />
        </mxCell>
        <mxCell id="Q6FI84Q2U2g7kpiwHqyH-38" style="line;strokeWidth=1;fillColor=none;align=left;verticalAlign=middle;spacingTop=-1;spacingLeft=3;spacingRight=3;rotatable=0;labelPosition=right;points=[];portConstraint=eastwest;strokeColor=inherit;" vertex="1" parent="Q6FI84Q2U2g7kpiwHqyH-37">
          <mxGeometry y="38" width="143" height="19" as="geometry" />
        </mxCell>
        <mxCell id="Q6FI84Q2U2g7kpiwHqyH-39" value="ATMCard" style="swimlane;fontStyle=1;align=center;verticalAlign=top;childLayout=stackLayout;horizontal=1;startSize=44.8;horizontalStack=0;resizeParent=1;resizeParentMax=0;resizeLast=0;collapsible=0;marginBottom=0;" vertex="1" parent="WIyWlLk6GJQsqaUBKTNV-1">
          <mxGeometry x="310" y="1690" width="193" height="111.8" as="geometry" />
        </mxCell>
        <mxCell id="Q6FI84Q2U2g7kpiwHqyH-40" value="-fee_per_year: 150" style="text;strokeColor=none;fillColor=none;align=left;verticalAlign=top;spacingLeft=4;spacingRight=4;overflow=hidden;rotatable=0;points=[[0,0.5],[1,0.5]];portConstraint=eastwest;" vertex="1" parent="Q6FI84Q2U2g7kpiwHqyH-39">
          <mxGeometry y="44.8" width="193" height="45" as="geometry" />
        </mxCell>
        <mxCell id="Q6FI84Q2U2g7kpiwHqyH-41" style="line;strokeWidth=1;fillColor=none;align=left;verticalAlign=middle;spacingTop=-1;spacingLeft=3;spacingRight=3;rotatable=0;labelPosition=right;points=[];portConstraint=eastwest;strokeColor=inherit;" vertex="1" parent="Q6FI84Q2U2g7kpiwHqyH-39">
          <mxGeometry y="89.8" width="193" height="22" as="geometry" />
        </mxCell>
        <mxCell id="Q6FI84Q2U2g7kpiwHqyH-42" value="DebitCard" style="swimlane;fontStyle=1;align=center;verticalAlign=top;childLayout=stackLayout;horizontal=1;startSize=44.8;horizontalStack=0;resizeParent=1;resizeParentMax=0;resizeLast=0;collapsible=0;marginBottom=0;" vertex="1" parent="WIyWlLk6GJQsqaUBKTNV-1">
          <mxGeometry x="553" y="1690" width="198" height="111.8" as="geometry" />
        </mxCell>
        <mxCell id="Q6FI84Q2U2g7kpiwHqyH-43" value="-fee_per_yaer: 300" style="text;strokeColor=none;fillColor=none;align=left;verticalAlign=top;spacingLeft=4;spacingRight=4;overflow=hidden;rotatable=0;points=[[0,0.5],[1,0.5]];portConstraint=eastwest;" vertex="1" parent="Q6FI84Q2U2g7kpiwHqyH-42">
          <mxGeometry y="44.8" width="198" height="45" as="geometry" />
        </mxCell>
        <mxCell id="Q6FI84Q2U2g7kpiwHqyH-44" style="line;strokeWidth=1;fillColor=none;align=left;verticalAlign=middle;spacingTop=-1;spacingLeft=3;spacingRight=3;rotatable=0;labelPosition=right;points=[];portConstraint=eastwest;strokeColor=inherit;" vertex="1" parent="Q6FI84Q2U2g7kpiwHqyH-42">
          <mxGeometry y="89.8" width="198" height="22" as="geometry" />
        </mxCell>
        <mxCell id="Q6FI84Q2U2g7kpiwHqyH-45" value="TravelCard" style="swimlane;fontStyle=1;align=center;verticalAlign=top;childLayout=stackLayout;horizontal=1;startSize=44.8;horizontalStack=0;resizeParent=1;resizeParentMax=0;resizeLast=0;collapsible=0;marginBottom=0;" vertex="1" parent="WIyWlLk6GJQsqaUBKTNV-1">
          <mxGeometry x="369" y="1860" width="270" height="111.8" as="geometry" />
        </mxCell>
        <mxCell id="Q6FI84Q2U2g7kpiwHqyH-46" value="-accident_capacity: 300_000" style="text;strokeColor=none;fillColor=none;align=left;verticalAlign=top;spacingLeft=4;spacingRight=4;overflow=hidden;rotatable=0;points=[[0,0.5],[1,0.5]];portConstraint=eastwest;" vertex="1" parent="Q6FI84Q2U2g7kpiwHqyH-45">
          <mxGeometry y="44.8" width="270" height="45" as="geometry" />
        </mxCell>
        <mxCell id="Q6FI84Q2U2g7kpiwHqyH-47" style="line;strokeWidth=1;fillColor=none;align=left;verticalAlign=middle;spacingTop=-1;spacingLeft=3;spacingRight=3;rotatable=0;labelPosition=right;points=[];portConstraint=eastwest;strokeColor=inherit;" vertex="1" parent="Q6FI84Q2U2g7kpiwHqyH-45">
          <mxGeometry y="89.8" width="270" height="22" as="geometry" />
        </mxCell>
        <mxCell id="Q6FI84Q2U2g7kpiwHqyH-48" value="ShoppingCard" style="swimlane;fontStyle=1;align=center;verticalAlign=top;childLayout=stackLayout;horizontal=1;startSize=44.8;horizontalStack=0;resizeParent=1;resizeParentMax=0;resizeLast=0;collapsible=0;marginBottom=0;" vertex="1" parent="WIyWlLk6GJQsqaUBKTNV-1">
          <mxGeometry x="688" y="1860" width="226" height="111.8" as="geometry" />
        </mxCell>
        <mxCell id="Q6FI84Q2U2g7kpiwHqyH-49" value="-credit_recieve: 0.01" style="text;strokeColor=none;fillColor=none;align=left;verticalAlign=top;spacingLeft=4;spacingRight=4;overflow=hidden;rotatable=0;points=[[0,0.5],[1,0.5]];portConstraint=eastwest;" vertex="1" parent="Q6FI84Q2U2g7kpiwHqyH-48">
          <mxGeometry y="44.8" width="226" height="45" as="geometry" />
        </mxCell>
        <mxCell id="Q6FI84Q2U2g7kpiwHqyH-50" style="line;strokeWidth=1;fillColor=none;align=left;verticalAlign=middle;spacingTop=-1;spacingLeft=3;spacingRight=3;rotatable=0;labelPosition=right;points=[];portConstraint=eastwest;strokeColor=inherit;" vertex="1" parent="Q6FI84Q2U2g7kpiwHqyH-48">
          <mxGeometry y="89.8" width="226" height="22" as="geometry" />
        </mxCell>
        <mxCell id="Q6FI84Q2U2g7kpiwHqyH-51" value="Transaction" style="swimlane;fontStyle=1;align=center;verticalAlign=top;childLayout=stackLayout;horizontal=1;startSize=33.45454545454545;horizontalStack=0;resizeParent=1;resizeParentMax=0;resizeLast=0;collapsible=0;marginBottom=0;" vertex="1" parent="WIyWlLk6GJQsqaUBKTNV-1">
          <mxGeometry x="1454" y="1436" width="292" height="182.45454545454544" as="geometry" />
        </mxCell>
        <mxCell id="Q6FI84Q2U2g7kpiwHqyH-52" value="-trans_type: str" style="text;strokeColor=none;fillColor=none;align=left;verticalAlign=top;spacingLeft=4;spacingRight=4;overflow=hidden;rotatable=0;points=[[0,0.5],[1,0.5]];portConstraint=eastwest;" vertex="1" parent="Q6FI84Q2U2g7kpiwHqyH-51">
          <mxGeometry y="33.45454545454545" width="292" height="33" as="geometry" />
        </mxCell>
        <mxCell id="Q6FI84Q2U2g7kpiwHqyH-53" value="-trans_source: str" style="text;strokeColor=none;fillColor=none;align=left;verticalAlign=top;spacingLeft=4;spacingRight=4;overflow=hidden;rotatable=0;points=[[0,0.5],[1,0.5]];portConstraint=eastwest;" vertex="1" parent="Q6FI84Q2U2g7kpiwHqyH-51">
          <mxGeometry y="66.45454545454545" width="292" height="33" as="geometry" />
        </mxCell>
        <mxCell id="Q6FI84Q2U2g7kpiwHqyH-54" value="-trans_amount: double" style="text;strokeColor=none;fillColor=none;align=left;verticalAlign=top;spacingLeft=4;spacingRight=4;overflow=hidden;rotatable=0;points=[[0,0.5],[1,0.5]];portConstraint=eastwest;" vertex="1" parent="Q6FI84Q2U2g7kpiwHqyH-51">
          <mxGeometry y="99.45454545454545" width="292" height="33" as="geometry" />
        </mxCell>
        <mxCell id="Q6FI84Q2U2g7kpiwHqyH-55" value="-trans_current_amount: double" style="text;strokeColor=none;fillColor=none;align=left;verticalAlign=top;spacingLeft=4;spacingRight=4;overflow=hidden;rotatable=0;points=[[0,0.5],[1,0.5]];portConstraint=eastwest;" vertex="1" parent="Q6FI84Q2U2g7kpiwHqyH-51">
          <mxGeometry y="132.45454545454544" width="292" height="33" as="geometry" />
        </mxCell>
        <mxCell id="Q6FI84Q2U2g7kpiwHqyH-56" style="line;strokeWidth=1;fillColor=none;align=left;verticalAlign=middle;spacingTop=-1;spacingLeft=3;spacingRight=3;rotatable=0;labelPosition=right;points=[];portConstraint=eastwest;strokeColor=inherit;" vertex="1" parent="Q6FI84Q2U2g7kpiwHqyH-51">
          <mxGeometry y="165.45454545454544" width="292" height="17" as="geometry" />
        </mxCell>
        <mxCell id="Q6FI84Q2U2g7kpiwHqyH-57" value="ATMMachine" style="swimlane;fontStyle=1;align=center;verticalAlign=top;childLayout=stackLayout;horizontal=1;startSize=33.142857142857146;horizontalStack=0;resizeParent=1;resizeParentMax=0;resizeLast=0;collapsible=0;marginBottom=0;" vertex="1" parent="WIyWlLk6GJQsqaUBKTNV-1">
          <mxGeometry x="1277" y="868" width="260" height="239.14285714285714" as="geometry" />
        </mxCell>
        <mxCell id="Q6FI84Q2U2g7kpiwHqyH-58" value="-machine_id: str" style="text;strokeColor=none;fillColor=none;align=left;verticalAlign=top;spacingLeft=4;spacingRight=4;overflow=hidden;rotatable=0;points=[[0,0.5],[1,0.5]];portConstraint=eastwest;" vertex="1" parent="Q6FI84Q2U2g7kpiwHqyH-57">
          <mxGeometry y="33.142857142857146" width="260" height="33" as="geometry" />
        </mxCell>
        <mxCell id="Q6FI84Q2U2g7kpiwHqyH-59" value="-machine_balance: double" style="text;strokeColor=none;fillColor=none;align=left;verticalAlign=top;spacingLeft=4;spacingRight=4;overflow=hidden;rotatable=0;points=[[0,0.5],[1,0.5]];portConstraint=eastwest;" vertex="1" parent="Q6FI84Q2U2g7kpiwHqyH-57">
          <mxGeometry y="66.14285714285714" width="260" height="33" as="geometry" />
        </mxCell>
        <mxCell id="Q6FI84Q2U2g7kpiwHqyH-60" style="line;strokeWidth=1;fillColor=none;align=left;verticalAlign=middle;spacingTop=-1;spacingLeft=3;spacingRight=3;rotatable=0;labelPosition=right;points=[];portConstraint=eastwest;strokeColor=inherit;" vertex="1" parent="Q6FI84Q2U2g7kpiwHqyH-57">
          <mxGeometry y="99.14285714285714" width="260" height="8" as="geometry" />
        </mxCell>
        <mxCell id="Q6FI84Q2U2g7kpiwHqyH-61" value="+insert_card()" style="text;strokeColor=none;fillColor=none;align=left;verticalAlign=top;spacingLeft=4;spacingRight=4;overflow=hidden;rotatable=0;points=[[0,0.5],[1,0.5]];portConstraint=eastwest;" vertex="1" parent="Q6FI84Q2U2g7kpiwHqyH-57">
          <mxGeometry y="107.14285714285714" width="260" height="33" as="geometry" />
        </mxCell>
        <mxCell id="Q6FI84Q2U2g7kpiwHqyH-62" value="+deposit()" style="text;strokeColor=none;fillColor=none;align=left;verticalAlign=top;spacingLeft=4;spacingRight=4;overflow=hidden;rotatable=0;points=[[0,0.5],[1,0.5]];portConstraint=eastwest;" vertex="1" parent="Q6FI84Q2U2g7kpiwHqyH-57">
          <mxGeometry y="140.14285714285714" width="260" height="33" as="geometry" />
        </mxCell>
        <mxCell id="Q6FI84Q2U2g7kpiwHqyH-63" value="+withdraw()" style="text;strokeColor=none;fillColor=none;align=left;verticalAlign=top;spacingLeft=4;spacingRight=4;overflow=hidden;rotatable=0;points=[[0,0.5],[1,0.5]];portConstraint=eastwest;" vertex="1" parent="Q6FI84Q2U2g7kpiwHqyH-57">
          <mxGeometry y="173.14285714285714" width="260" height="33" as="geometry" />
        </mxCell>
        <mxCell id="Q6FI84Q2U2g7kpiwHqyH-64" value="+trasfer()" style="text;strokeColor=none;fillColor=none;align=left;verticalAlign=top;spacingLeft=4;spacingRight=4;overflow=hidden;rotatable=0;points=[[0,0.5],[1,0.5]];portConstraint=eastwest;" vertex="1" parent="Q6FI84Q2U2g7kpiwHqyH-57">
          <mxGeometry y="206.14285714285714" width="260" height="33" as="geometry" />
        </mxCell>
        <mxCell id="Q6FI84Q2U2g7kpiwHqyH-65" value="EDCMachine" style="swimlane;fontStyle=1;align=center;verticalAlign=top;childLayout=stackLayout;horizontal=1;startSize=36.8;horizontalStack=0;resizeParent=1;resizeParentMax=0;resizeLast=0;collapsible=0;marginBottom=0;" vertex="1" parent="WIyWlLk6GJQsqaUBKTNV-1">
          <mxGeometry x="1587" y="892" width="196" height="192.8" as="geometry" />
        </mxCell>
        <mxCell id="Q6FI84Q2U2g7kpiwHqyH-66" value="-edc_id: str" style="text;strokeColor=none;fillColor=none;align=left;verticalAlign=top;spacingLeft=4;spacingRight=4;overflow=hidden;rotatable=0;points=[[0,0.5],[1,0.5]];portConstraint=eastwest;" vertex="1" parent="Q6FI84Q2U2g7kpiwHqyH-65">
          <mxGeometry y="36.8" width="196" height="37" as="geometry" />
        </mxCell>
        <mxCell id="Q6FI84Q2U2g7kpiwHqyH-67" value="-edc_owner: User" style="text;strokeColor=none;fillColor=none;align=left;verticalAlign=top;spacingLeft=4;spacingRight=4;overflow=hidden;rotatable=0;points=[[0,0.5],[1,0.5]];portConstraint=eastwest;" vertex="1" parent="Q6FI84Q2U2g7kpiwHqyH-65">
          <mxGeometry y="73.8" width="196" height="37" as="geometry" />
        </mxCell>
        <mxCell id="Q6FI84Q2U2g7kpiwHqyH-68" style="line;strokeWidth=1;fillColor=none;align=left;verticalAlign=middle;spacingTop=-1;spacingLeft=3;spacingRight=3;rotatable=0;labelPosition=right;points=[];portConstraint=eastwest;strokeColor=inherit;" vertex="1" parent="Q6FI84Q2U2g7kpiwHqyH-65">
          <mxGeometry y="110.8" width="196" height="8" as="geometry" />
        </mxCell>
        <mxCell id="Q6FI84Q2U2g7kpiwHqyH-69" value="+swipe_card()" style="text;strokeColor=none;fillColor=none;align=left;verticalAlign=top;spacingLeft=4;spacingRight=4;overflow=hidden;rotatable=0;points=[[0,0.5],[1,0.5]];portConstraint=eastwest;" vertex="1" parent="Q6FI84Q2U2g7kpiwHqyH-65">
          <mxGeometry y="118.8" width="196" height="37" as="geometry" />
        </mxCell>
        <mxCell id="Q6FI84Q2U2g7kpiwHqyH-70" value="+pay()" style="text;strokeColor=none;fillColor=none;align=left;verticalAlign=top;spacingLeft=4;spacingRight=4;overflow=hidden;rotatable=0;points=[[0,0.5],[1,0.5]];portConstraint=eastwest;" vertex="1" parent="Q6FI84Q2U2g7kpiwHqyH-65">
          <mxGeometry y="155.8" width="196" height="37" as="geometry" />
        </mxCell>
        <mxCell id="Q6FI84Q2U2g7kpiwHqyH-71" value="TransactionChannel" style="swimlane;fontStyle=1;align=center;verticalAlign=top;childLayout=stackLayout;horizontal=1;startSize=38.857142857142854;horizontalStack=0;resizeParent=1;resizeParentMax=0;resizeLast=0;collapsible=0;marginBottom=0;" vertex="1" parent="WIyWlLk6GJQsqaUBKTNV-1">
          <mxGeometry x="1440" y="360" width="211" height="135.85714285714286" as="geometry" />
        </mxCell>
        <mxCell id="Q6FI84Q2U2g7kpiwHqyH-72" value="-channel_id: str" style="text;strokeColor=none;fillColor=none;align=left;verticalAlign=top;spacingLeft=4;spacingRight=4;overflow=hidden;rotatable=0;points=[[0,0.5],[1,0.5]];portConstraint=eastwest;" vertex="1" parent="Q6FI84Q2U2g7kpiwHqyH-71">
          <mxGeometry y="38.857142857142854" width="211" height="39" as="geometry" />
        </mxCell>
        <mxCell id="Q6FI84Q2U2g7kpiwHqyH-73" value="-bank: Bank" style="text;strokeColor=none;fillColor=none;align=left;verticalAlign=top;spacingLeft=4;spacingRight=4;overflow=hidden;rotatable=0;points=[[0,0.5],[1,0.5]];portConstraint=eastwest;" vertex="1" parent="Q6FI84Q2U2g7kpiwHqyH-71">
          <mxGeometry y="77.85714285714286" width="211" height="39" as="geometry" />
        </mxCell>
        <mxCell id="Q6FI84Q2U2g7kpiwHqyH-74" style="line;strokeWidth=1;fillColor=none;align=left;verticalAlign=middle;spacingTop=-1;spacingLeft=3;spacingRight=3;rotatable=0;labelPosition=right;points=[];portConstraint=eastwest;strokeColor=inherit;" vertex="1" parent="Q6FI84Q2U2g7kpiwHqyH-71">
          <mxGeometry y="116.85714285714286" width="211" height="19" as="geometry" />
        </mxCell>
        <mxCell id="Q6FI84Q2U2g7kpiwHqyH-75" value="Counter" style="swimlane;fontStyle=1;align=center;verticalAlign=top;childLayout=stackLayout;horizontal=1;startSize=34.666666666666664;horizontalStack=0;resizeParent=1;resizeParentMax=0;resizeLast=0;collapsible=0;marginBottom=0;" vertex="1" parent="WIyWlLk6GJQsqaUBKTNV-1">
          <mxGeometry x="1192" y="578" width="180" height="217.66666666666666" as="geometry" />
        </mxCell>
        <mxCell id="Q6FI84Q2U2g7kpiwHqyH-76" value="-branch_no: str" style="text;strokeColor=none;fillColor=none;align=left;verticalAlign=top;spacingLeft=4;spacingRight=4;overflow=hidden;rotatable=0;points=[[0,0.5],[1,0.5]];portConstraint=eastwest;" vertex="1" parent="Q6FI84Q2U2g7kpiwHqyH-75">
          <mxGeometry y="34.666666666666664" width="180" height="35" as="geometry" />
        </mxCell>
        <mxCell id="Q6FI84Q2U2g7kpiwHqyH-77" style="line;strokeWidth=1;fillColor=none;align=left;verticalAlign=middle;spacingTop=-1;spacingLeft=3;spacingRight=3;rotatable=0;labelPosition=right;points=[];portConstraint=eastwest;strokeColor=inherit;" vertex="1" parent="Q6FI84Q2U2g7kpiwHqyH-75">
          <mxGeometry y="69.66666666666666" width="180" height="8" as="geometry" />
        </mxCell>
        <mxCell id="Q6FI84Q2U2g7kpiwHqyH-78" value="+verify_identity()" style="text;strokeColor=none;fillColor=none;align=left;verticalAlign=top;spacingLeft=4;spacingRight=4;overflow=hidden;rotatable=0;points=[[0,0.5],[1,0.5]];portConstraint=eastwest;" vertex="1" parent="Q6FI84Q2U2g7kpiwHqyH-75">
          <mxGeometry y="77.66666666666666" width="180" height="35" as="geometry" />
        </mxCell>
        <mxCell id="Q6FI84Q2U2g7kpiwHqyH-79" value="+deposit()" style="text;strokeColor=none;fillColor=none;align=left;verticalAlign=top;spacingLeft=4;spacingRight=4;overflow=hidden;rotatable=0;points=[[0,0.5],[1,0.5]];portConstraint=eastwest;" vertex="1" parent="Q6FI84Q2U2g7kpiwHqyH-75">
          <mxGeometry y="112.66666666666666" width="180" height="35" as="geometry" />
        </mxCell>
        <mxCell id="Q6FI84Q2U2g7kpiwHqyH-80" value="+withdraw()" style="text;strokeColor=none;fillColor=none;align=left;verticalAlign=top;spacingLeft=4;spacingRight=4;overflow=hidden;rotatable=0;points=[[0,0.5],[1,0.5]];portConstraint=eastwest;" vertex="1" parent="Q6FI84Q2U2g7kpiwHqyH-75">
          <mxGeometry y="147.66666666666666" width="180" height="35" as="geometry" />
        </mxCell>
        <mxCell id="Q6FI84Q2U2g7kpiwHqyH-81" value="+transfer()" style="text;strokeColor=none;fillColor=none;align=left;verticalAlign=top;spacingLeft=4;spacingRight=4;overflow=hidden;rotatable=0;points=[[0,0.5],[1,0.5]];portConstraint=eastwest;" vertex="1" parent="Q6FI84Q2U2g7kpiwHqyH-75">
          <mxGeometry y="182.66666666666666" width="180" height="35" as="geometry" />
        </mxCell>
        <mxCell id="Q6FI84Q2U2g7kpiwHqyH-82" value="" style="curved=1;startArrow=diamondThin;startSize=14;startFill=0;endArrow=none;exitX=0.42;exitY=1;entryX=0.5;entryY=0;rounded=0;" edge="1" parent="WIyWlLk6GJQsqaUBKTNV-1" source="Q6FI84Q2U2g7kpiwHqyH-0" target="Q6FI84Q2U2g7kpiwHqyH-9">
          <mxGeometry relative="1" as="geometry">
            <Array as="points">
              <mxPoint x="1016" y="843" />
            </Array>
          </mxGeometry>
        </mxCell>
        <mxCell id="Q6FI84Q2U2g7kpiwHqyH-83" value="" style="curved=1;startArrow=diamondThin;startSize=14;startFill=0;endArrow=none;exitX=0.5;exitY=1;entryX=0.5;entryY=0;rounded=0;" edge="1" parent="WIyWlLk6GJQsqaUBKTNV-1" source="Q6FI84Q2U2g7kpiwHqyH-9" target="Q6FI84Q2U2g7kpiwHqyH-15">
          <mxGeometry relative="1" as="geometry">
            <Array as="points" />
          </mxGeometry>
        </mxCell>
        <mxCell id="Q6FI84Q2U2g7kpiwHqyH-84" value="" style="curved=1;startArrow=none;endArrow=open;endSize=12;exitX=0;exitY=0.61;entryX=0.5;entryY=0;rounded=0;" edge="1" parent="WIyWlLk6GJQsqaUBKTNV-1" source="Q6FI84Q2U2g7kpiwHqyH-15" target="Q6FI84Q2U2g7kpiwHqyH-22">
          <mxGeometry relative="1" as="geometry">
            <Array as="points">
              <mxPoint x="530" y="1399" />
            </Array>
          </mxGeometry>
        </mxCell>
        <mxCell id="Q6FI84Q2U2g7kpiwHqyH-85" value="" style="curved=1;startArrow=block;startSize=16;startFill=0;endArrow=none;exitX=0;exitY=0.75;entryX=0.5;entryY=0;rounded=0;" edge="1" parent="WIyWlLk6GJQsqaUBKTNV-1" source="Q6FI84Q2U2g7kpiwHqyH-15" target="Q6FI84Q2U2g7kpiwHqyH-29">
          <mxGeometry relative="1" as="geometry">
            <Array as="points">
              <mxPoint x="800" y="1399" />
            </Array>
          </mxGeometry>
        </mxCell>
        <mxCell id="Q6FI84Q2U2g7kpiwHqyH-86" value="" style="curved=1;startArrow=block;startSize=16;startFill=0;endArrow=none;exitX=0.89;exitY=1;entryX=0.5;entryY=0;rounded=0;" edge="1" parent="WIyWlLk6GJQsqaUBKTNV-1" source="Q6FI84Q2U2g7kpiwHqyH-15" target="Q6FI84Q2U2g7kpiwHqyH-33">
          <mxGeometry relative="1" as="geometry">
            <Array as="points">
              <mxPoint x="1101" y="1399" />
            </Array>
          </mxGeometry>
        </mxCell>
        <mxCell id="Q6FI84Q2U2g7kpiwHqyH-87" value="" style="curved=1;startArrow=block;startSize=16;startFill=0;endArrow=none;exitX=1;exitY=0.67;entryX=0.5;entryY=0;rounded=0;" edge="1" parent="WIyWlLk6GJQsqaUBKTNV-1" source="Q6FI84Q2U2g7kpiwHqyH-15" target="Q6FI84Q2U2g7kpiwHqyH-37">
          <mxGeometry relative="1" as="geometry">
            <Array as="points">
              <mxPoint x="1333" y="1399" />
            </Array>
          </mxGeometry>
        </mxCell>
        <mxCell id="Q6FI84Q2U2g7kpiwHqyH-88" value="" style="curved=1;startArrow=block;startSize=16;startFill=0;endArrow=none;exitX=0;exitY=0.9;entryX=0.5;entryY=0;rounded=0;" edge="1" parent="WIyWlLk6GJQsqaUBKTNV-1" source="Q6FI84Q2U2g7kpiwHqyH-22" target="Q6FI84Q2U2g7kpiwHqyH-39">
          <mxGeometry relative="1" as="geometry">
            <Array as="points">
              <mxPoint x="407" y="1665" />
            </Array>
          </mxGeometry>
        </mxCell>
        <mxCell id="Q6FI84Q2U2g7kpiwHqyH-89" value="" style="curved=1;startArrow=block;startSize=16;startFill=0;endArrow=none;exitX=1;exitY=0.9;entryX=0.5;entryY=0;rounded=0;" edge="1" parent="WIyWlLk6GJQsqaUBKTNV-1" source="Q6FI84Q2U2g7kpiwHqyH-22" target="Q6FI84Q2U2g7kpiwHqyH-42">
          <mxGeometry relative="1" as="geometry">
            <Array as="points">
              <mxPoint x="652" y="1665" />
            </Array>
          </mxGeometry>
        </mxCell>
        <mxCell id="Q6FI84Q2U2g7kpiwHqyH-90" value="" style="curved=1;startArrow=block;startSize=16;startFill=0;endArrow=none;exitX=0;exitY=0.97;entryX=0.5;entryY=0;rounded=0;" edge="1" parent="WIyWlLk6GJQsqaUBKTNV-1" source="Q6FI84Q2U2g7kpiwHqyH-42" target="Q6FI84Q2U2g7kpiwHqyH-45">
          <mxGeometry relative="1" as="geometry">
            <Array as="points">
              <mxPoint x="503" y="1835" />
            </Array>
          </mxGeometry>
        </mxCell>
        <mxCell id="Q6FI84Q2U2g7kpiwHqyH-91" value="" style="curved=1;startArrow=block;startSize=16;startFill=0;endArrow=none;exitX=1;exitY=0.97;entryX=0.5;entryY=0;rounded=0;" edge="1" parent="WIyWlLk6GJQsqaUBKTNV-1" source="Q6FI84Q2U2g7kpiwHqyH-42" target="Q6FI84Q2U2g7kpiwHqyH-48">
          <mxGeometry relative="1" as="geometry">
            <Array as="points">
              <mxPoint x="801" y="1835" />
            </Array>
          </mxGeometry>
        </mxCell>
        <mxCell id="Q6FI84Q2U2g7kpiwHqyH-92" value="" style="curved=1;startArrow=diamondThin;startSize=14;startFill=0;endArrow=none;exitX=1;exitY=0.59;entryX=0.5;entryY=0;rounded=0;" edge="1" parent="WIyWlLk6GJQsqaUBKTNV-1" source="Q6FI84Q2U2g7kpiwHqyH-15" target="Q6FI84Q2U2g7kpiwHqyH-51">
          <mxGeometry relative="1" as="geometry">
            <Array as="points">
              <mxPoint x="1600" y="1399" />
            </Array>
          </mxGeometry>
        </mxCell>
        <mxCell id="Q6FI84Q2U2g7kpiwHqyH-93" value="" style="curved=1;startArrow=diamondThin;startSize=14;startFill=0;endArrow=none;exitX=0.5;exitY=1;entryX=0;entryY=0.29;rounded=0;" edge="1" parent="WIyWlLk6GJQsqaUBKTNV-1" source="Q6FI84Q2U2g7kpiwHqyH-0" target="Q6FI84Q2U2g7kpiwHqyH-57">
          <mxGeometry relative="1" as="geometry">
            <Array as="points">
              <mxPoint x="1036" y="843" />
            </Array>
          </mxGeometry>
        </mxCell>
        <mxCell id="Q6FI84Q2U2g7kpiwHqyH-94" value="" style="curved=1;startArrow=diamondThin;startSize=14;startFill=0;endArrow=none;exitX=1;exitY=0.66;entryX=0;entryY=0.21;rounded=0;" edge="1" parent="WIyWlLk6GJQsqaUBKTNV-1" source="Q6FI84Q2U2g7kpiwHqyH-0" target="Q6FI84Q2U2g7kpiwHqyH-65">
          <mxGeometry relative="1" as="geometry">
            <Array as="points">
              <mxPoint x="1427" y="843" />
            </Array>
          </mxGeometry>
        </mxCell>
        <mxCell id="Q6FI84Q2U2g7kpiwHqyH-95" value="" style="curved=1;startArrow=block;startSize=16;startFill=0;endArrow=none;exitX=0.01;exitY=1;entryX=0.5;entryY=0;rounded=0;" edge="1" parent="WIyWlLk6GJQsqaUBKTNV-1" source="Q6FI84Q2U2g7kpiwHqyH-71" target="Q6FI84Q2U2g7kpiwHqyH-57">
          <mxGeometry relative="1" as="geometry">
            <Array as="points">
              <mxPoint x="1407" y="529" />
            </Array>
          </mxGeometry>
        </mxCell>
        <mxCell id="Q6FI84Q2U2g7kpiwHqyH-96" value="" style="curved=1;startArrow=block;startSize=16;startFill=0;endArrow=none;exitX=0.99;exitY=1;entryX=0.5;entryY=0;rounded=0;" edge="1" parent="WIyWlLk6GJQsqaUBKTNV-1" source="Q6FI84Q2U2g7kpiwHqyH-71" target="Q6FI84Q2U2g7kpiwHqyH-65">
          <mxGeometry relative="1" as="geometry">
            <Array as="points">
              <mxPoint x="1685" y="529" />
            </Array>
          </mxGeometry>
        </mxCell>
        <mxCell id="Q6FI84Q2U2g7kpiwHqyH-97" value="" style="curved=1;startArrow=block;startSize=16;startFill=0;endArrow=none;exitX=0;exitY=0.77;entryX=0.5;entryY=0;rounded=0;" edge="1" parent="WIyWlLk6GJQsqaUBKTNV-1" source="Q6FI84Q2U2g7kpiwHqyH-71" target="Q6FI84Q2U2g7kpiwHqyH-75">
          <mxGeometry relative="1" as="geometry">
            <Array as="points">
              <mxPoint x="1282" y="529" />
            </Array>
          </mxGeometry>
        </mxCell>
        <mxCell id="Q6FI84Q2U2g7kpiwHqyH-98" value="" style="curved=1;startArrow=none;endArrow=open;endSize=12;exitX=0;exitY=0.64;entryX=0.5;entryY=0;rounded=0;" edge="1" parent="WIyWlLk6GJQsqaUBKTNV-1" source="Q6FI84Q2U2g7kpiwHqyH-71" target="Q6FI84Q2U2g7kpiwHqyH-0">
          <mxGeometry relative="1" as="geometry">
            <Array as="points">
              <mxPoint x="1036" y="529" />
            </Array>
          </mxGeometry>
        </mxCell>
      </root>
    </mxGraphModel>
  </diagram>
</mxfile>
